<?xml version="1.0" encoding="iso-8859-1"?>
<!-- Uploaded to: SVG Repo, www.svgrepo.com, Generator: SVG Repo Mixer Tools -->
<svg height="800px" width="800px" version="1.1" id="Layer_1" xmlns="http://www.w3.org/2000/svg" xmlns:xlink="http://www.w3.org/1999/xlink" 
	 viewBox="0 0 512 512" xml:space="preserve">
<path style="fill:#2D2D2D;" d="M512,31.344c0-5.744-4.704-10.448-10.448-10.448H10.448C4.704,20.896,0,25.6,0,31.344v323.92h512
	V31.344z M491.104,81.368v253H20.896v-66.792v-79.192V41.792H451.48h39.624V81.368z"/>
<g>
	<path style="fill:#E8E8E8;" d="M512,397.064v-41.8H0v41.8c0,5.744,4.704,10.448,10.448,10.448h182.856h125.392h182.856
		C507.296,407.512,512,402.808,512,397.064z"/>
	<polygon style="fill:#E8E8E8;" points="146.28,480.656 146.28,491.104 365.712,491.104 365.712,480.656 329.144,480.656 
		182.856,480.656 	"/>
</g>
<polygon style="fill:#C9C9C9;" points="182.856,480.656 329.144,480.656 318.696,407.512 193.304,407.512 "/>
<g>
	<polygon style="fill:#DB2B42;" points="120.376,168.104 20.896,267.576 20.896,334.368 491.104,334.368 491.104,81.368 
		262.376,310.104 	"/>
	<polygon style="fill:#DB2B42;" points="262.376,230.896 451.48,41.792 20.896,41.792 20.896,188.384 120.376,88.896 	"/>
</g>
<polygon style="fill:#FFFFFF;" points="262.376,230.896 120.376,88.896 20.896,188.384 20.896,267.576 120.376,168.104 
	262.376,310.104 491.104,81.368 491.104,41.792 451.48,41.792 "/>
</svg>